<svg width="233" height="75" viewBox="0 0 233 75" fill="none" xmlns="http://www.w3.org/2000/svg">
<path d="M157 15.9024V8.73438C157 5.56737 159.567 3 162.734 3H224.379C227.546 3 230.113 5.56737 230.113 8.73438V48.8751C230.113 52.0421 227.546 54.6094 224.379 54.6094H214.344L217.698 70.2603C217.991 71.6282 216.351 72.563 215.323 71.6141L200.008 57.4766H162.734C159.567 57.4766 157 54.9093 157 51.7422V48.8751" stroke="url(#paint0_linear)" stroke-width="4.30079"/>
<path d="M6.27 18.8V41H2.07V18.8H6.27ZM9.33961 32.63C9.33961 30.95 9.66961 29.46 10.3296 28.16C11.0096 26.86 11.9196 25.86 13.0596 25.16C14.2196 24.46 15.5096 24.11 16.9296 24.11C18.1696 24.11 19.2496 24.36 20.1696 24.86C21.1096 25.36 21.8596 25.99 22.4196 26.75V24.38H26.6496V41H22.4196V38.57C21.8796 39.35 21.1296 40 20.1696 40.52C19.2296 41.02 18.1396 41.27 16.8996 41.27C15.4996 41.27 14.2196 40.91 13.0596 40.19C11.9196 39.47 11.0096 38.46 10.3296 37.16C9.66961 35.84 9.33961 34.33 9.33961 32.63ZM22.4196 32.69C22.4196 31.67 22.2196 30.8 21.8196 30.08C21.4196 29.34 20.8796 28.78 20.1996 28.4C19.5196 28 18.7896 27.8 18.0096 27.8C17.2296 27.8 16.5096 27.99 15.8496 28.37C15.1896 28.75 14.6496 29.31 14.2296 30.05C13.8296 30.77 13.6296 31.63 13.6296 32.63C13.6296 33.63 13.8296 34.51 14.2296 35.27C14.6496 36.01 15.1896 36.58 15.8496 36.98C16.5296 37.38 17.2496 37.58 18.0096 37.58C18.7896 37.58 19.5196 37.39 20.1996 37.01C20.8796 36.61 21.4196 36.05 21.8196 35.33C22.2196 34.59 22.4196 33.71 22.4196 32.69ZM51.3916 24.14C53.4316 24.14 55.0716 24.77 56.3116 26.03C57.5716 27.27 58.2016 29.01 58.2016 31.25V41H54.0016V31.82C54.0016 30.52 53.6716 29.53 53.0116 28.85C52.3516 28.15 51.4516 27.8 50.3116 27.8C49.1716 27.8 48.2616 28.15 47.5816 28.85C46.9216 29.53 46.5916 30.52 46.5916 31.82V41H42.3916V31.82C42.3916 30.52 42.0616 29.53 41.4016 28.85C40.7416 28.15 39.8416 27.8 38.7016 27.8C37.5416 27.8 36.6216 28.15 35.9416 28.85C35.2816 29.53 34.9516 30.52 34.9516 31.82V41H30.7516V24.38H34.9516V26.39C35.4916 25.69 36.1816 25.14 37.0216 24.74C37.8816 24.34 38.8216 24.14 39.8416 24.14C41.1416 24.14 42.3016 24.42 43.3216 24.98C44.3416 25.52 45.1316 26.3 45.6916 27.32C46.2316 26.36 47.0116 25.59 48.0316 25.01C49.0716 24.43 50.1916 24.14 51.3916 24.14ZM77.6372 32.33C77.6372 32.93 77.5972 33.47 77.5172 33.95H65.3672C65.4672 35.15 65.8872 36.09 66.6272 36.77C67.3672 37.45 68.2772 37.79 69.3572 37.79C70.9172 37.79 72.0272 37.12 72.6872 35.78H77.2172C76.7372 37.38 75.8172 38.7 74.4572 39.74C73.0972 40.76 71.4272 41.27 69.4472 41.27C67.8472 41.27 66.4072 40.92 65.1272 40.22C63.8672 39.5 62.8772 38.49 62.1572 37.19C61.4572 35.89 61.1072 34.39 61.1072 32.69C61.1072 30.97 61.4572 29.46 62.1572 28.16C62.8572 26.86 63.8372 25.86 65.0972 25.16C66.3572 24.46 67.8072 24.11 69.4472 24.11C71.0272 24.11 72.4372 24.45 73.6772 25.13C74.9372 25.81 75.9072 26.78 76.5872 28.04C77.2872 29.28 77.6372 30.71 77.6372 32.33ZM73.2872 31.13C73.2672 30.05 72.8772 29.19 72.1172 28.55C71.3572 27.89 70.4272 27.56 69.3272 27.56C68.2872 27.56 67.4072 27.88 66.6872 28.52C65.9872 29.14 65.5572 30.01 65.3972 31.13H73.2872ZM87.2128 24.11C88.4528 24.11 89.5428 24.36 90.4828 24.86C91.4228 25.34 92.1628 25.97 92.7028 26.75V24.38H96.9328V41.12C96.9328 42.66 96.6228 44.03 96.0028 45.23C95.3828 46.45 94.4528 47.41 93.2128 48.11C91.9728 48.83 90.4728 49.19 88.7128 49.19C86.3528 49.19 84.4128 48.64 82.8928 47.54C81.3928 46.44 80.5428 44.94 80.3428 43.04H84.5128C84.7328 43.8 85.2028 44.4 85.9228 44.84C86.6628 45.3 87.5528 45.53 88.5928 45.53C89.8128 45.53 90.8028 45.16 91.5628 44.42C92.3228 43.7 92.7028 42.6 92.7028 41.12V38.54C92.1628 39.32 91.4128 39.97 90.4528 40.49C89.5128 41.01 88.4328 41.27 87.2128 41.27C85.8128 41.27 84.5328 40.91 83.3728 40.19C82.2128 39.47 81.2928 38.46 80.6128 37.16C79.9528 35.84 79.6228 34.33 79.6228 32.63C79.6228 30.95 79.9528 29.46 80.6128 28.16C81.2928 26.86 82.2028 25.86 83.3428 25.16C84.5028 24.46 85.7928 24.11 87.2128 24.11ZM92.7028 32.69C92.7028 31.67 92.5028 30.8 92.1028 30.08C91.7028 29.34 91.1628 28.78 90.4828 28.4C89.8028 28 89.0728 27.8 88.2928 27.8C87.5128 27.8 86.7928 27.99 86.1328 28.37C85.4728 28.75 84.9328 29.31 84.5128 30.05C84.1128 30.77 83.9128 31.63 83.9128 32.63C83.9128 33.63 84.1128 34.51 84.5128 35.27C84.9328 36.01 85.4728 36.58 86.1328 36.98C86.8128 37.38 87.5328 37.58 88.2928 37.58C89.0728 37.58 89.8028 37.39 90.4828 37.01C91.1628 36.61 91.7028 36.05 92.1028 35.33C92.5028 34.59 92.7028 33.71 92.7028 32.69Z" fill="black"/>
<g filter="url(#filter0_d)">
<path d="M112.956 41.306C111.573 41.306 110.315 41.0793 109.182 40.626C108.071 40.15 107.187 39.504 106.53 38.688C105.895 37.8493 105.578 36.8973 105.578 35.832C105.578 35.6733 105.601 35.4127 105.646 35.05H110.27C110.202 35.8433 110.44 36.4893 110.984 36.988C111.528 37.464 112.299 37.702 113.296 37.702C114.203 37.702 114.951 37.5433 115.54 37.226C116.152 36.886 116.458 36.3987 116.458 35.764C116.458 35.1973 116.175 34.744 115.608 34.404C115.064 34.064 114.191 33.6787 112.99 33.248C111.789 32.8173 110.791 32.398 109.998 31.99C109.205 31.582 108.525 31.0153 107.958 30.29C107.391 29.5647 107.108 28.6467 107.108 27.536C107.108 26.4253 107.425 25.4393 108.06 24.578C108.717 23.7167 109.624 23.048 110.78 22.572C111.936 22.096 113.262 21.858 114.758 21.858C116.186 21.858 117.444 22.096 118.532 22.572C119.62 23.048 120.459 23.7167 121.048 24.578C121.66 25.4167 121.966 26.38 121.966 27.468C121.966 27.74 121.955 27.944 121.932 28.08H117.512C117.58 27.2867 117.353 26.652 116.832 26.176C116.311 25.7 115.551 25.462 114.554 25.462C113.738 25.462 113.069 25.6433 112.548 26.006C112.027 26.346 111.766 26.8107 111.766 27.4C111.766 27.9893 112.061 28.4767 112.65 28.862C113.239 29.2247 114.146 29.6327 115.37 30.086C116.594 30.562 117.569 31.004 118.294 31.412C119.042 31.7973 119.688 32.3413 120.232 33.044C120.776 33.724 121.048 34.5853 121.048 35.628C121.048 36.784 120.697 37.7927 119.994 38.654C119.291 39.5153 118.328 40.1727 117.104 40.626C115.88 41.0793 114.497 41.306 112.956 41.306ZM131.755 24.884C132.526 24.0227 133.489 23.3087 134.645 22.742C135.824 22.1527 137.105 21.858 138.487 21.858C139.893 21.858 141.128 22.164 142.193 22.776C143.281 23.3653 144.12 24.2267 144.709 25.36C145.299 26.4933 145.593 27.8193 145.593 29.338C145.593 30.0407 145.525 30.766 145.389 31.514C145.049 33.4407 144.369 35.152 143.349 36.648C142.329 38.1213 141.094 39.266 139.643 40.082C138.193 40.898 136.674 41.306 135.087 41.306C133.705 41.306 132.526 41.0227 131.551 40.456C130.599 39.8893 129.874 39.1753 129.375 38.314L127.335 49.976H122.541L127.437 22.164H132.231L131.755 24.884ZM140.527 31.514C140.595 31.0607 140.629 30.6527 140.629 30.29C140.629 28.9527 140.244 27.91 139.473 27.162C138.703 26.414 137.717 26.04 136.515 26.04C135.654 26.04 134.804 26.2667 133.965 26.72C133.127 27.1507 132.401 27.7853 131.789 28.624C131.177 29.4627 130.769 30.4487 130.565 31.582C130.475 32.1713 130.429 32.602 130.429 32.874C130.429 34.2113 130.815 35.254 131.585 36.002C132.379 36.75 133.365 37.124 134.543 37.124C135.427 37.124 136.289 36.8973 137.127 36.444C137.966 35.9907 138.691 35.3447 139.303 34.506C139.915 33.6673 140.323 32.67 140.527 31.514ZM165.746 25.122C166.676 26.4367 167.14 28.0007 167.14 29.814C167.14 31.9673 166.63 33.9167 165.61 35.662C164.59 37.4073 163.185 38.79 161.394 39.81C159.626 40.8073 157.666 41.306 155.512 41.306C153.336 41.306 151.523 40.7053 150.072 39.504L148.44 41H145.55L148.746 38.076C147.817 36.8067 147.352 35.2427 147.352 33.384C147.352 31.2533 147.851 29.3153 148.848 27.57C149.868 25.802 151.251 24.408 152.996 23.388C154.764 22.368 156.725 21.858 158.878 21.858C159.989 21.858 161.009 22.0167 161.938 22.334C162.89 22.6513 163.718 23.1047 164.42 23.694L166.086 22.164H168.976L165.746 25.122ZM152.282 33.044C152.282 33.6333 152.35 34.166 152.486 34.642L160.918 26.89C160.216 26.2553 159.309 25.938 158.198 25.938C157.042 25.938 156.011 26.2667 155.104 26.924C154.22 27.5813 153.529 28.4653 153.03 29.576C152.532 30.664 152.282 31.82 152.282 33.044ZM162.21 30.188C162.21 29.576 162.131 29.0433 161.972 28.59L153.54 36.308C154.22 36.92 155.093 37.226 156.158 37.226C157.292 37.226 158.323 36.8973 159.252 36.24C160.182 35.5827 160.907 34.71 161.428 33.622C161.95 32.534 162.21 31.3893 162.21 30.188ZM176.245 25.496C177.061 24.3627 178.013 23.4787 179.101 22.844C180.189 22.2093 181.368 21.892 182.637 21.892L181.753 26.89H180.495C179.09 26.89 177.956 27.196 177.095 27.808C176.256 28.42 175.644 29.4627 175.259 30.936L173.491 41H168.697L172.029 22.164H176.823L176.245 25.496ZM189.991 25.496C190.807 24.3627 191.759 23.4787 192.847 22.844C193.935 22.2093 195.114 21.892 196.383 21.892L195.499 26.89H194.241C192.836 26.89 191.703 27.196 190.841 27.808C190.003 28.42 189.391 29.4627 189.005 30.936L187.237 41H182.443L185.775 22.164H190.569L189.991 25.496ZM207.817 21.858C210.22 21.858 212.124 22.5267 213.529 23.864C214.935 25.1787 215.637 26.958 215.637 29.202C215.637 29.9273 215.581 30.5733 215.467 31.14C215.331 31.82 215.184 32.4093 215.025 32.908H201.255C201.233 33.0667 201.221 33.2933 201.221 33.588C201.221 34.7667 201.561 35.696 202.241 36.376C202.944 37.0333 203.862 37.362 204.995 37.362C205.947 37.362 206.763 37.158 207.443 36.75C208.146 36.3193 208.713 35.764 209.143 35.084H214.277C213.439 36.8973 212.135 38.3933 210.367 39.572C208.622 40.728 206.639 41.306 204.417 41.306C202.015 41.306 200.088 40.626 198.637 39.266C197.187 37.906 196.461 36.0587 196.461 33.724C196.461 33.044 196.529 32.33 196.665 31.582C197.005 29.6327 197.697 27.9213 198.739 26.448C199.805 24.9747 201.119 23.8413 202.683 23.048C204.247 22.2547 205.959 21.858 207.817 21.858ZM210.741 30.018C210.787 29.6553 210.809 29.3947 210.809 29.236C210.809 28.148 210.458 27.298 209.755 26.686C209.053 26.074 208.135 25.768 207.001 25.768C205.8 25.768 204.723 26.1533 203.771 26.924C202.819 27.672 202.151 28.7033 201.765 30.018H210.741Z" fill="url(#paint1_linear)"/>
</g>
<defs>
<filter id="filter0_d" x="93.578" y="11.858" width="134.059" height="52.118" filterUnits="userSpaceOnUse" color-interpolation-filters="sRGB">
<feFlood flood-opacity="0" result="BackgroundImageFix"/>
<feColorMatrix in="SourceAlpha" type="matrix" values="0 0 0 0 0 0 0 0 0 0 0 0 0 0 0 0 0 0 127 0"/>
<feOffset dy="2"/>
<feGaussianBlur stdDeviation="6"/>
<feColorMatrix type="matrix" values="0 0 0 0 0 0 0 0 0 0 0 0 0 0 0 0 0 0 0.04 0"/>
<feBlend mode="normal" in2="BackgroundImageFix" result="effect1_dropShadow"/>
<feBlend mode="normal" in="SourceGraphic" in2="effect1_dropShadow" result="shape"/>
</filter>
<linearGradient id="paint0_linear" x1="157" y1="3" x2="217.211" y2="77.547" gradientUnits="userSpaceOnUse">
<stop stop-color="#485BFF"/>
<stop offset="1" stop-color="#FF59F8"/>
</linearGradient>
<linearGradient id="paint1_linear" x1="113" y1="14" x2="167" y2="51" gradientUnits="userSpaceOnUse">
<stop stop-color="#485BFF"/>
<stop offset="1" stop-color="#FF59F8"/>
<stop offset="1" stop-color="#FF59F8"/>
<stop offset="1" stop-color="#FF59F8"/>
</linearGradient>
</defs>
</svg>
